<svg width="56" height="56" viewBox="0 0 56 56" fill="none" xmlns="http://www.w3.org/2000/svg">
<path d="M39.6667 25.6667H42C43.8565 25.6667 45.637 26.4042 46.9497 27.7169C48.2625 29.0297 49 30.8102 49 32.6667C49 34.5232 48.2625 36.3037 46.9497 37.6164C45.637 38.9292 43.8565 39.6667 42 39.6667H39.6667M21 28V42M30.3333 28V42M32.6667 17.5C30.3333 17.5 29.3067 18.6667 25.6667 18.6667C22.0267 18.6667 21 17.5 18.6667 17.5C16.3333 17.5 14.6533 18.6667 12.8333 18.6667C11.2862 18.6667 9.80251 18.0521 8.70854 16.9581C7.61458 15.8642 7 14.3804 7 12.8334C7 11.2863 7.61458 9.80253 8.70854 8.70856C9.80251 7.6146 11.2862 7.00002 12.8333 7.00002C14.6533 7.00002 16.4967 8.16669 18.6667 8.16669C20.8367 8.16669 22.0267 4.66669 25.6667 4.66669C29.3067 4.66669 30.3333 8.16669 32.6667 8.16669C35 8.16669 36.68 7.00002 38.5 7.00002C40.0471 7.00002 41.5308 7.6146 42.6248 8.70856C43.7188 9.80253 44.3333 11.2863 44.3333 12.8334C44.3333 14.3804 43.7188 15.8642 42.6248 16.9581C41.5308 18.0521 40.0471 18.6667 38.5 18.6667C36.68 18.6667 35 17.5 32.6667 17.5Z" stroke="#BDA872" stroke-width="3" stroke-linecap="round" stroke-linejoin="round"/>
<path d="M11.668 18.6667V46.6667C11.668 47.9044 12.1596 49.0914 13.0348 49.9665C13.91 50.8417 15.097 51.3334 16.3346 51.3334H35.0013C36.239 51.3334 37.426 50.8417 38.3011 49.9665C39.1763 49.0914 39.668 47.9044 39.668 46.6667V18.6667" stroke="#BDA872" stroke-width="3" stroke-linecap="round" stroke-linejoin="round"/>
</svg>
