<svg width="56" height="56" viewBox="0 0 56 56" fill="none" xmlns="http://www.w3.org/2000/svg">
<path d="M48.742 4.66669H7.26056C6.57296 4.66669 5.91353 4.93983 5.42732 5.42604C4.94112 5.91225 4.66797 6.57168 4.66797 7.25928V48.7408C4.66797 49.4284 4.94112 50.0878 5.42732 50.574C5.91353 51.0602 6.57296 51.3334 7.26056 51.3334H48.742C49.4296 51.3334 50.0891 51.0602 50.5753 50.574C51.0615 50.0878 51.3346 49.4284 51.3346 48.7408V7.25928C51.3346 6.57168 51.0615 5.91225 50.5753 5.42604C50.0891 4.93983 49.4296 4.66669 48.742 4.66669ZM46.1494 46.1482H9.85315V9.85187H46.1494V46.1482Z" fill="white"/>
<path d="M25.4102 15.0369H30.5953V20.2221H25.4102V15.0369ZM25.4102 25.4073H30.5953V40.9629H25.4102V25.4073Z" fill="white"/>
</svg>
