<svg width="56" height="56" viewBox="0 0 56 56" fill="none" xmlns="http://www.w3.org/2000/svg">
<path d="M15.75 3.5H19.25V21H15.75V3.5Z" fill="white"/>
<path d="M24.5 19.25C24.5 21.1065 23.7625 22.887 22.4497 24.1997C21.137 25.5125 19.3565 26.25 17.5 26.25C15.6435 26.25 13.863 25.5125 12.5503 24.1997C11.2375 22.887 10.5 21.1065 10.5 19.25V3.49999H7V19.25C7.00251 21.7295 7.88243 24.1282 9.48392 26.0211C11.0854 27.9141 13.3051 29.1792 15.75 29.5925V52.5H19.25V29.5925C21.6949 29.1792 23.9146 27.9141 25.5161 26.0211C27.1176 24.1282 27.9975 21.7295 28 19.25V3.49999H24.5V19.25ZM38.5 3.49999H36.75V52.5H40.25V35H45.5C46.4283 35 47.3185 34.6312 47.9749 33.9749C48.6312 33.3185 49 32.4282 49 31.5V14C49.0541 12.6066 48.8196 11.2171 48.311 9.91866C47.8025 8.62025 47.031 7.441 46.045 6.45499C45.059 5.46897 43.8797 4.69747 42.5813 4.18895C41.2829 3.68043 39.8934 3.44587 38.5 3.49999ZM45.5 31.5H40.25V7.15749C45.29 8.13749 45.5 13.3525 45.5 14V31.5Z" fill="white"/>
</svg>
