<svg width="64" height="56" viewBox="0 0 64 56" fill="none" xmlns="http://www.w3.org/2000/svg">
<path fill-rule="evenodd" clip-rule="evenodd" d="M24.0034 37.3697L21.7273 41.3175L21.7264 41.321C19.9914 40.3861 18.2403 40.2183 16.449 40.8862C13.4094 42.0202 11.8842 45.2259 12.6334 48.3325C13.3612 51.3489 16.1731 53.3179 19.2118 52.9625C21.3433 52.7133 22.9961 51.6605 24.0793 49.7853C25.6595 47.052 27.2335 44.3151 28.8075 41.5781L28.8076 41.5779L28.8088 41.5759L28.8135 41.5677C29.4656 40.4338 30.1176 39.2999 30.7702 38.1662C31.2086 37.4046 31.9346 37.3983 32.3704 38.1546C32.8634 39.0107 33.3566 39.8666 33.8498 40.7226L33.8604 40.7408L33.8613 40.7424L33.8645 40.7481C35.5905 43.7434 37.3163 46.7387 39.0363 49.7371C39.4952 50.5363 40.081 51.2159 40.8293 51.7454C43.3528 53.5304 46.8523 53.3911 49.0213 51.0917C50.4973 49.5264 50.8965 47.6512 50.5723 45.5751C50.1321 42.7516 47.5265 40.5129 44.6761 40.487C43.5233 40.4763 42.4589 40.7719 41.4294 41.3112L41.3973 41.2602L41.3491 41.1842C41.2919 41.0941 41.238 41.0093 41.1883 40.9228C40.9072 40.4347 40.6266 39.9462 40.346 39.4578L40.3453 39.4565C39.5647 38.0976 38.7842 36.7387 37.9915 35.3865C37.812 35.0811 37.7968 34.865 37.9835 34.548C38.8609 33.0551 39.7232 31.5531 40.5855 30.0512C40.8729 29.5507 41.1602 29.0502 41.4481 28.55L42.3904 26.9133L42.3923 26.9101C43.6279 24.7635 44.8633 22.6173 46.1067 20.4751C46.1897 20.3322 46.3594 20.1715 46.5076 20.1491C46.7746 20.1096 47.0538 20.1362 47.3276 20.1623L47.3961 20.1688C47.9686 20.2234 48.5407 20.285 49.1127 20.3465L49.1131 20.3466L49.1135 20.3466C50.2809 20.4722 51.4481 20.5979 52.619 20.6644C54.0815 20.7477 55.5472 20.7816 57.013 20.8155H57.013L57.0137 20.8155C57.7161 20.8318 58.4185 20.8481 59.1206 20.8697C59.5277 20.8822 59.8483 20.7599 60.0305 20.3733C60.218 19.9741 60.1189 19.625 59.8456 19.3062C59.5942 19.0134 59.3425 18.7209 59.0908 18.4283C58.5871 17.8428 58.0833 17.2573 57.582 16.6702C57.2768 16.3128 56.9749 15.9525 56.6743 15.5938L56.6741 15.5936C56.5324 15.4245 56.391 15.2558 56.2497 15.0879C56.5235 14.7656 56.7955 14.4457 57.0661 14.1275L57.075 14.1171L57.0753 14.1168C58.017 13.0095 58.9411 11.9228 59.8572 10.8303C59.9831 10.6812 60.0858 10.4749 60.1073 10.2847C60.1742 9.68105 59.7385 9.2944 59.0366 9.27922C58.5326 9.26862 58.0283 9.26094 57.524 9.25326C56.2451 9.23379 54.966 9.21431 53.6896 9.14707C52.642 9.09144 51.5967 8.98972 50.5514 8.88801L50.5514 8.88801C50.0027 8.83462 49.4541 8.78124 48.9052 8.73452C48.5828 8.70684 48.3792 8.62112 48.2614 8.26483C47.6399 6.38516 46.563 4.78946 45.1298 3.43038C44.4529 2.78835 43.8707 2.87229 43.4064 3.67594C43.1991 4.03481 42.9922 4.3939 42.7854 4.75298L42.7829 4.75723C42.1485 5.85845 41.5142 6.95956 40.8677 8.05409C40.782 8.19964 40.5739 8.35591 40.415 8.36395C39.6763 8.40244 38.9369 8.42926 38.1975 8.45608C37.3934 8.48525 36.5893 8.51442 35.7859 8.55861C34.8292 8.6112 33.8734 8.6788 32.9177 8.7464L32.9176 8.7464C32.0234 8.80965 31.1292 8.87289 30.2344 8.92383C28.9388 8.99789 27.6426 9.06158 26.3465 9.12526C25.3299 9.17522 24.3133 9.22516 23.2971 9.28012C23.0301 9.2953 22.9077 9.18368 22.7863 8.97116C21.7665 7.18436 20.7397 5.40202 19.711 3.62058C19.2904 2.89193 18.6912 2.80174 18.0697 3.38216C16.6821 4.67694 15.6346 6.203 14.9747 7.98801C14.8794 8.24531 14.7863 8.50316 14.6923 8.76328L14.6149 8.97741C14.2822 8.94264 13.9534 8.90371 13.627 8.86507L13.6269 8.86506L13.6269 8.86506L13.6269 8.86506C12.9055 8.77967 12.1964 8.69573 11.4851 8.6613C9.67222 8.57343 7.85748 8.51128 6.04289 8.44913L6.04285 8.44913L6.04281 8.44913C5.34943 8.42538 4.65607 8.40163 3.96285 8.37645C3.56638 8.36216 3.27439 8.53093 3.1074 8.89347C2.94131 9.25422 3.0065 9.59176 3.25563 9.88732C3.57742 10.2686 3.90325 10.6468 4.22909 11.025L4.22916 11.0251C4.45576 11.2881 4.68235 11.5511 4.9076 11.8152C5.32796 12.3074 5.74653 12.8007 6.16717 13.2964L6.1672 13.2965L6.16723 13.2965C6.41047 13.5832 6.6544 13.8707 6.89978 14.1592C6.57466 14.5415 6.25192 14.9217 5.93062 15.3001C5.06676 16.3178 4.21342 17.3231 3.35297 18.3222C3.06811 18.6525 2.91006 18.9945 3.10383 19.4116C3.31278 19.8598 3.70658 19.9634 4.1718 19.9714L4.24202 19.9727H4.24204H4.24207C5.55543 19.9955 6.86957 20.0183 8.18027 20.0902C9.10288 20.1411 10.0243 20.2192 10.9459 20.2972L10.946 20.2972L10.9461 20.2972C11.4141 20.3368 11.8821 20.3765 12.3504 20.4126C12.8191 20.4486 13.288 20.4832 13.7569 20.5178L13.7579 20.5179C14.8126 20.5958 15.8674 20.6737 16.9205 20.7671C17.0857 20.7813 17.2982 20.9305 17.3839 21.0778C20.003 25.5979 22.6113 30.1243 25.2062 34.6578C25.2937 34.8096 25.2928 35.0909 25.2107 35.2472C24.9334 35.7742 24.6328 36.2892 24.3321 36.8042L24.3321 36.8042L24.3319 36.8045C24.222 36.9927 24.1121 37.1809 24.0034 37.3697ZM57.2085 11.1655L57.182 11.1067L57.1552 11.0473C57.0436 11.0473 56.932 11.0483 56.8203 11.0494H56.8202H56.8201C56.5778 11.0517 56.3354 11.054 56.0934 11.0455C55.9068 11.0389 55.72 11.0329 55.5332 11.0268L55.5329 11.0268L55.5325 11.0268H55.5325C54.8287 11.0041 54.1247 10.9813 53.4235 10.9312C52.6096 10.8729 51.7965 10.8053 50.9834 10.7377L50.9834 10.7377L50.9833 10.7377C50.0525 10.6603 49.1217 10.5829 48.1899 10.5195C47.1606 10.4497 46.1304 10.3952 45.1004 10.3406L45.1003 10.3406C44.3521 10.301 43.604 10.2614 42.8563 10.2159C40.3888 10.0662 37.9292 10.2212 35.4708 10.3762C35.0841 10.4006 34.6974 10.4249 34.3108 10.4481C33.3974 10.5032 32.4853 10.5819 31.5733 10.6605L31.5732 10.6605L31.5732 10.6605C30.7268 10.7335 29.8805 10.8065 29.0334 10.8606C28.0067 10.9267 26.9781 10.9666 25.9495 11.0065L25.9495 11.0065L25.9492 11.0065C25.4347 11.0264 24.9203 11.0464 24.4061 11.0696C24.3365 11.0725 24.2677 11.0886 24.1864 11.1076L24.1863 11.1076C24.1425 11.1178 24.095 11.1289 24.0418 11.1392L24.6522 12.1985L24.6523 12.1988L24.6539 12.2015C25.9194 14.3978 27.1659 16.5611 28.419 18.7204C28.4655 18.7999 28.6057 18.8767 28.6959 18.8704C29.3791 18.82 30.062 18.7641 30.7448 18.7082L30.7451 18.7082C31.5248 18.6444 32.3045 18.5806 33.0847 18.5249C33.4798 18.4968 33.8749 18.467 34.27 18.4372L34.2704 18.4372L34.2707 18.4372H34.2707C35.6215 18.3353 36.973 18.2335 38.3255 18.1989C41.5928 18.115 44.8601 18.1418 48.1194 18.449C49.624 18.5909 51.1304 18.724 52.6377 18.8285C53.7253 18.904 54.8148 18.9569 55.9044 19.0099L55.9053 19.0099C56.2835 19.0283 56.6618 19.0467 57.04 19.066C57.0699 19.0677 57.1006 19.0542 57.1392 19.0372C57.1605 19.0279 57.1842 19.0175 57.2114 19.0079L56.3701 18.0208L56.3656 18.0155L56.3569 18.0053C55.7135 17.2503 55.079 16.5058 54.4433 15.7621C54.0629 15.3174 54.0379 14.9432 54.395 14.486C54.5906 14.2364 54.7979 13.9953 55.0051 13.7545C55.0884 13.6577 55.1716 13.5609 55.2541 13.4636C55.9023 12.7007 56.5514 11.9378 57.2005 11.1749L57.2085 11.1655ZM43.4537 19.9679H44.3011H44.302L43.4875 21.3812C42.804 22.5673 42.1415 23.717 41.4794 24.8666C40.9626 25.7641 40.4422 26.6595 39.9218 27.5548L39.9217 27.555L39.9216 27.5551L39.9216 27.5552C38.6795 29.6921 37.4376 31.8288 36.2458 33.9935C35.2305 35.8374 33.0008 36.4973 31.2667 35.5169C30.7336 35.215 30.288 35.3936 29.9406 35.9919C29.3198 37.0602 28.703 38.1311 28.0861 39.2022L28.0859 39.2025L28.0857 39.2028C27.8829 39.555 27.68 39.9072 27.477 40.2593C26.9894 41.1056 26.5005 41.951 26.0117 42.7965C24.8343 44.8326 23.657 46.8688 22.4979 48.9156C21.5192 50.6435 19.5815 51.348 18.1715 51.156C16.1025 50.8747 14.7345 49.6023 14.2934 47.6664C13.7166 45.1357 15.523 42.6194 18.084 42.3426C19.0323 42.2399 19.9065 42.4158 20.7423 42.8435C21.8755 43.4222 22.7497 43.1623 23.3944 42.0434L24.7118 39.7575L24.7122 39.7569L24.7149 39.7522C28.4263 33.3125 32.1377 26.8728 35.8377 20.426C36.0341 20.0831 36.2404 19.9563 36.6324 19.9589C38.3376 19.9723 40.0432 19.9707 41.7486 19.969H41.7487H41.7488C42.3171 19.9684 42.8854 19.9679 43.4537 19.9679ZM18.5214 5.46705C18.5461 5.43 18.5745 5.38743 18.61 5.33684L19.4312 6.75758C20.2837 8.23215 21.109 9.65973 21.9317 11.0883C22.588 12.228 23.2441 13.3678 23.9002 14.5076L23.9052 14.5162C26.0373 18.2201 28.1694 21.924 30.3067 25.6247C30.4711 25.9087 30.4969 26.1239 30.321 26.4239C29.4131 27.9728 28.517 29.5289 27.621 31.0849L27.6206 31.0854L27.6203 31.086L27.6198 31.087L27.6192 31.0879C27.305 31.6336 26.9907 32.1793 26.676 32.7246C26.6308 32.8028 26.5831 32.8797 26.5266 32.9708L26.5265 32.9709C26.5005 33.013 26.4725 33.058 26.442 33.1077C26.4117 33.0614 26.3829 33.019 26.3556 32.9789L26.3556 32.9788C26.305 32.9045 26.2597 32.8379 26.2197 32.7683C25.4028 31.3507 24.5853 29.9334 23.7678 28.5161L23.7651 28.5115L23.7625 28.5069C21.6178 24.7886 19.4732 21.0704 17.3384 17.3462C15.1837 13.5868 15.6221 8.94169 18.4144 5.61633C18.45 5.57411 18.4807 5.52809 18.5214 5.46709L18.5214 5.46706L18.5214 5.46705ZM34.292 37.8689C34.2634 37.8189 34.2482 37.7608 34.2482 37.7608V37.76C34.8075 37.4765 35.3478 37.2024 35.8968 36.9239L36.5967 36.5688C36.8408 36.9928 37.0917 37.4294 37.347 37.8735L37.3483 37.8758L37.3511 37.8807C37.7455 38.5668 38.1502 39.2708 38.5558 39.9745C38.9621 40.679 39.3693 41.3844 39.7792 42.0872C40.4132 43.1757 41.2883 43.4257 42.4036 42.8417C44.2431 41.8783 46.379 42.1961 47.7649 43.7097C48.9132 44.9634 49.2525 46.4484 48.7266 48.0807C48.1988 49.7202 47.0889 50.7631 45.386 51.1033C43.5001 51.4811 41.6892 50.6845 40.7195 49.0192C39.128 46.2865 37.5531 43.5445 35.9782 40.8027L35.9764 40.7996L35.9746 40.7964C35.4139 39.8204 34.8533 38.8445 34.292 37.8689ZM16.1079 18.8285L5.94789 18.0659C6.19535 17.7756 6.44359 17.4828 6.69296 17.1887C7.28674 16.4882 7.88692 15.7803 8.49816 15.0816C9.15627 14.3289 9.17145 14.036 8.53477 13.2922C7.83224 12.4701 7.13355 11.6449 6.4349 10.8198L6.43464 10.8194L6.43439 10.8191L6.05593 10.3722C6.03595 10.3485 6.01999 10.3215 5.98891 10.2687C5.96722 10.2319 5.93815 10.1826 5.8952 10.1132C8.55961 10.2978 11.1303 10.4761 13.7373 10.6569L13.7471 10.6575L13.7512 10.6578L14.2809 10.6946C13.9318 13.6618 14.5631 16.3318 16.1079 18.8285ZM32.796 22.0968L32.7949 22.0987C32.3899 22.8032 31.988 23.5024 31.5747 24.2219L30.4274 22.2283L29.5031 20.6224C30.964 20.4795 32.3739 20.342 33.8893 20.1947C33.5217 20.8346 33.166 21.4532 32.8129 22.0674L32.7977 22.0939L32.796 22.0968ZM42.8755 8.22518L42.8837 8.21097L42.8941 8.19276C43.4331 7.25421 43.9567 6.34246 44.5136 5.37345V5.37434C45.3485 6.33427 45.9933 7.32009 46.4237 8.50057C45.3452 8.45897 44.3144 8.41944 43.2427 8.37835L43.2348 8.37804L43.2343 8.37802L42.7974 8.36127L42.8755 8.22518ZM15.9492 46.7475C15.951 48.2656 17.1011 49.4192 18.6138 49.421C20.1077 49.4228 21.3114 48.2289 21.3052 46.7538C21.298 45.2795 20.0791 44.0571 18.6174 44.0571C17.1351 44.0571 15.9474 45.2554 15.9492 46.7475ZM19.4925 46.7761C19.4737 47.2556 19.0683 47.636 18.587 47.6244L18.5879 47.6253C18.0959 47.6128 17.7316 47.2244 17.7449 46.7243C17.7575 46.2573 18.1914 45.8394 18.6433 45.8608C19.1183 45.8832 19.5103 46.3055 19.4925 46.7761ZM32.9152 33.8006C32.3892 33.8033 32.0213 33.4434 32.0195 32.9246C32.0178 32.4148 32.4017 32.0183 32.9009 32.0138C33.3947 32.0102 33.7956 32.4112 33.8001 32.9112C33.8046 33.4327 33.4411 33.7979 32.9152 33.8006ZM44.5318 49.421C46.0444 49.4192 47.1954 48.2629 47.1954 46.7457C47.1954 45.2518 46.0096 44.0571 44.5255 44.0571C43.0655 44.0571 41.835 45.2911 41.8359 46.7538C41.8368 48.2334 43.0387 49.4228 44.5318 49.421ZM45.4006 46.7779C45.3872 47.2735 45.0023 47.6369 44.505 47.6244L44.5041 47.6253C44.0246 47.6128 43.6415 47.2038 43.6593 46.7216C43.6772 46.2386 44.0924 45.8394 44.5568 45.859C45.0193 45.8778 45.414 46.3082 45.4006 46.7779Z" fill="#BDA872"/>
</svg>
