<svg width="56" height="56" viewBox="0 0 56 56" fill="none" xmlns="http://www.w3.org/2000/svg">
<path d="M4.66797 44.8333V19.1666C4.66797 17.9289 5.15963 16.7419 6.0348 15.8668C6.90997 14.9916 8.09696 14.4999 9.33464 14.4999H46.668C47.9056 14.4999 49.0926 14.9916 49.9678 15.8668C50.843 16.7419 51.3346 17.9289 51.3346 19.1666V44.8333C51.3346 46.0709 50.843 47.2579 49.9678 48.1331C49.0926 49.0083 47.9056 49.4999 46.668 49.4999H9.33464C8.09696 49.4999 6.90997 49.0083 6.0348 48.1331C5.15963 47.2579 4.66797 46.0709 4.66797 44.8333Z" stroke="white" stroke-width="3.5"/>
<path d="M19.8359 5.99994L28.0026 14.1666L36.1693 5.99994" stroke="white" stroke-width="3.5" stroke-linecap="square" stroke-linejoin="round"/>
</svg>
