<svg width="56" height="56" viewBox="0 0 56 56" fill="none" xmlns="http://www.w3.org/2000/svg">
<path d="M44.3321 42H11.6654H44.3321ZM27.9988 42V28V42ZM34.9988 42V32.6667V42ZM20.9988 42V32.6667V42ZM44.3321 51.3334V26.4367C45.1985 26.1209 45.9941 25.6372 46.673 25.0131C47.3519 24.3891 47.9009 23.6371 48.2885 22.8003C48.676 21.9635 48.8944 21.0584 48.9312 20.137C48.968 19.2156 48.8225 18.296 48.5029 17.4309C48.1833 16.5659 47.696 15.7725 47.069 15.0964C46.4419 14.4202 45.6875 13.8745 44.849 13.4907C44.0106 13.1069 43.1045 12.8924 42.1829 12.8597C41.2613 12.827 40.3424 12.9766 39.4788 13.3C38.6154 9.03935 33.7388 4.66669 27.9988 4.66669C22.2588 4.66669 17.3821 9.03935 16.5188 13.3C14.7767 12.6564 12.8504 12.7312 11.1635 13.5079C9.47662 14.2846 8.16737 15.6997 7.52378 17.4417C6.88019 19.1837 6.95497 21.1101 7.73169 22.797C8.5084 24.4838 9.92341 25.7931 11.6654 26.4367V51.3334H44.3321Z" stroke="white" stroke-width="3.5"/>
</svg>
