<svg width="57" height="57" viewBox="0 0 57 57" fill="none" xmlns="http://www.w3.org/2000/svg">
<g clip-path="url(#clip0_3438_20072)">
<path d="M21.7926 19.6559L22.7984 18.6501C26.0896 15.3589 30.0935 16.0329 32.0525 16.6561L42.1584 6.55011C42.8003 5.90829 43.6708 5.54772 44.5785 5.54772C45.4861 5.54772 46.3566 5.90829 46.9985 6.55011L51.8385 11.3901C52.4803 12.0319 52.8409 12.9024 52.8409 13.8101C52.8409 14.7178 52.4803 15.5883 51.8385 16.2301L41.7325 26.3361C42.3557 28.2951 43.0297 32.299 39.7384 35.5902L38.7327 36.596M21.7926 19.6559L38.7327 36.596M21.7926 19.6559L17.9584 23.4901L34.8984 40.4302L38.7327 36.596M39.0321 22.3754L36.2037 19.5469L41.2479 14.5027L44.0763 17.3311L39.0321 22.3754Z" stroke="#0B5ED7" stroke-width="3"/>
<path d="M19.168 23.8334L5.16797 35.5" stroke="#0B5ED7" stroke-width="3"/>
<path d="M33.3581 39.4207L23.5066 54.3292" stroke="#0B5ED7" stroke-width="3"/>
<path d="M29.2238 34.7541L11.1914 54.5874M23.3908 28.9209L4.19301 47.5874" stroke="#0B5ED7" stroke-width="3"/>
</g>
<defs>
<clipPath id="clip0_3438_20072">
<rect width="56" height="56" fill="white" transform="translate(0.5 0.5)"/>
</clipPath>
</defs>
</svg>
