<svg width="56" height="52" viewBox="0 0 56 52" fill="none" xmlns="http://www.w3.org/2000/svg">
<path fill-rule="evenodd" clip-rule="evenodd" d="M44.3381 50.6503C43.4392 51.1792 42.3282 51.1905 41.4187 50.68L29.0065 43.7135C28.7452 43.5669 28.512 43.3836 28.3117 43.1722L20.0892 47.7924C19.1798 48.3034 18.0685 48.2925 17.1692 47.7637C16.2699 47.2349 15.7173 46.2674 15.7173 45.2217V36.1211C15.6665 36.0963 15.6162 36.0699 15.5666 36.0421L2.44043 28.6744C1.51237 28.1535 0.9375 27.17 0.9375 26.1031C0.9375 25.0362 1.51237 24.0526 2.44043 23.5317L15.5666 16.1641C15.6163 16.1362 15.6666 16.1098 15.7173 16.0851V7.02269C15.7173 5.9769 16.2699 5.00948 17.1692 4.48068C18.0685 3.95188 19.1798 3.94096 20.0892 4.45198L28.1793 8.99781C28.4076 8.72005 28.6881 8.48242 29.0115 8.30096L41.419 1.3392C42.3285 0.828894 43.4394 0.840323 44.3383 1.36923C45.2371 1.89814 45.7893 2.86532 45.7893 3.91078V17.8391C45.7893 18.1719 45.7334 18.4969 45.628 18.8022L54.0801 23.5515C55.0075 24.0726 55.5819 25.0558 55.5819 26.1222C55.5819 27.1886 55.0075 28.1718 54.0801 28.6929L45.687 33.409C45.7541 33.6572 45.7893 33.9163 45.7893 34.1803V48.1086C45.7893 49.1542 45.2371 50.1214 44.3381 50.6503ZM42.8525 34.1803V48.1086L30.4403 41.1421L42.8525 34.1803ZM18.6542 45.2217V35.6719L35.6353 26.1222L18.6542 16.5724V7.02269L52.645 26.1222L18.6542 45.2217ZM17.0052 18.7402L17.0005 18.7354L3.87432 26.1031L17.0005 33.4707L30.1218 26.1031L17.0052 18.7402ZM42.8525 3.91078L30.445 10.8725L42.8525 17.8391V3.91078Z" fill="#CD1719"/>
</svg>
