<svg width="57" height="57" viewBox="0 0 57 57" fill="none" xmlns="http://www.w3.org/2000/svg">
<path d="M12.168 13.3333C12.168 11.1674 13.0284 9.09013 14.5599 7.55859C16.0915 6.02704 18.1687 5.16663 20.3346 5.16663H28.5013V21.5H20.3346C18.1687 21.5 16.0915 20.6395 14.5599 19.108C13.0284 17.5765 12.168 15.4992 12.168 13.3333Z" stroke="#0B5ED7" stroke-width="3" stroke-linecap="round" stroke-linejoin="round"/>
<path d="M28.5 5.16663H36.6667C37.7391 5.16663 38.8011 5.37786 39.7919 5.78828C40.7827 6.19869 41.683 6.80024 42.4414 7.55859C43.1997 8.31693 43.8013 9.21722 44.2117 10.208C44.6221 11.1989 44.8333 12.2608 44.8333 13.3333C44.8333 14.4058 44.6221 15.4677 44.2117 16.4585C43.8013 17.4494 43.1997 18.3497 42.4414 19.108C41.683 19.8663 40.7827 20.4679 39.7919 20.8783C38.8011 21.2887 37.7391 21.5 36.6667 21.5H28.5V5.16663Z" stroke="#0B5ED7" stroke-width="3" stroke-linecap="round" stroke-linejoin="round"/>
<path d="M28.5 29.6667C28.5 28.5942 28.7112 27.5322 29.1216 26.5414C29.5321 25.5506 30.1336 24.6503 30.892 23.892C31.6503 23.1336 32.5506 22.5321 33.5414 22.1216C34.5322 21.7112 35.5942 21.5 36.6667 21.5C37.7391 21.5 38.8011 21.7112 39.7919 22.1216C40.7827 22.5321 41.683 23.1336 42.4414 23.892C43.1997 24.6503 43.8013 25.5506 44.2117 26.5414C44.6221 27.5322 44.8333 28.5942 44.8333 29.6667C44.8333 30.7391 44.6221 31.8011 44.2117 32.7919C43.8013 33.7827 43.1997 34.683 42.4414 35.4414C41.683 36.1997 40.7827 36.8013 39.7919 37.2117C38.8011 37.6221 37.7391 37.8333 36.6667 37.8333C35.5942 37.8333 34.5322 37.6221 33.5414 37.2117C32.5506 36.8013 31.6503 36.1997 30.892 35.4414C30.1336 34.683 29.5321 33.7827 29.1216 32.7919C28.7112 31.8011 28.5 30.7391 28.5 29.6667V29.6667Z" stroke="#0B5ED7" stroke-width="3" stroke-linecap="round" stroke-linejoin="round"/>
<path d="M12.168 46C12.168 43.8341 13.0284 41.7569 14.5599 40.2253C16.0915 38.6938 18.1687 37.8334 20.3346 37.8334H28.5013V46C28.5013 48.166 27.6409 50.2432 26.1093 51.7748C24.5778 53.3063 22.5006 54.1667 20.3346 54.1667C18.1687 54.1667 16.0915 53.3063 14.5599 51.7748C13.0284 50.2432 12.168 48.166 12.168 46Z" stroke="#0B5ED7" stroke-width="3" stroke-linecap="round" stroke-linejoin="round"/>
<path d="M12.168 29.6667C12.168 27.5007 13.0284 25.4235 14.5599 23.892C16.0915 22.3604 18.1687 21.5 20.3346 21.5H28.5013V37.8333H20.3346C18.1687 37.8333 16.0915 36.9729 14.5599 35.4414C13.0284 33.9098 12.168 31.8326 12.168 29.6667Z" stroke="#0B5ED7" stroke-width="3" stroke-linecap="round" stroke-linejoin="round"/>
</svg>
