<svg width="48" height="48" viewBox="0 0 48 48" fill="none" xmlns="http://www.w3.org/2000/svg">
<path d="M43.9996 28H33.4996C32.5717 28.0009 31.682 28.37 31.0258 29.0261C30.3696 29.6823 30.0006 30.572 29.9996 31.5V35H20.2241L12.4996 27.2755V17.5H15.9996C16.9276 17.4991 17.8173 17.13 18.4735 16.4739C19.1297 15.8177 19.4987 14.928 19.4996 14V3.5C19.4987 2.57203 19.1297 1.68233 18.4735 1.02615C17.8173 0.369973 16.9276 0.000926584 15.9996 0H5.49963C4.57165 0.000926584 3.68195 0.369973 3.02578 1.02615C2.3696 1.68233 2.00055 2.57203 1.99963 3.5V14C2.00055 14.928 2.3696 15.8177 3.02578 16.4739C3.68195 17.13 4.57165 17.4991 5.49963 17.5H8.99963V27.2755L0.762376 35.5127C0.434302 35.8409 0.25 36.286 0.25 36.75C0.25 37.214 0.434302 37.6591 0.762376 37.9873L9.51238 46.7373C9.84055 47.0653 10.2856 47.2496 10.7496 47.2496C11.2137 47.2496 11.6587 47.0653 11.9869 46.7373L20.2241 38.5H29.9996V42C30.0006 42.928 30.3696 43.8177 31.0258 44.4739C31.682 45.13 32.5717 45.4991 33.4996 45.5H43.9996C44.9276 45.4991 45.8173 45.13 46.4735 44.4739C47.1297 43.8177 47.4987 42.928 47.4996 42V31.5C47.4987 30.572 47.1297 29.6823 46.4735 29.0261C45.8173 28.37 44.9276 28.0009 43.9996 28ZM5.49963 3.5H15.9996V14H5.49963V3.5ZM10.7496 43.0255L4.47413 36.75L10.7496 30.4745L17.0251 36.75L10.7496 43.0255ZM33.4996 42V31.5H43.9996V42H33.4996Z" fill="#9A7B69"/>
</svg>
