<svg width="101" height="46" viewBox="0 0 101 46" fill="none" xmlns="http://www.w3.org/2000/svg">
<path d="M56.8199 44.235H98.5588V33.5512H81.4726C86.3877 30.0547 89.9446 27.141 92.1434 24.81C95.5063 21.184 97.1878 17.6227 97.1878 14.1262C97.1878 10.6297 95.5063 7.716 92.1434 5.385C88.2631 2.795 82.8307 1.5 75.8333 1.5C72.4704 1.5 69.1721 1.759 65.9386 2.277C63.8691 2.536 61.1529 3.054 57.79 3.831V14.5018C61.1529 12.6888 64.5805 11.7823 68.0727 11.7823C70.6596 11.7823 72.6385 12.3003 73.9966 13.3363C75.3547 14.3723 76.0402 15.6673 76.0402 17.2213C76.0402 22.0128 69.6378 28.436 56.8199 36.465V44.235V44.235ZM1.5 44.235V2.26405H20.9144V21.5077H21.1084L34.3013 2.26405H54.1037L39.5397 21.702L54.6858 44.2479H33.7193L21.1084 23.256H20.9144V44.2479H1.5V44.235Z" stroke="#0B5ED7" stroke-width="3"/>
</svg>
