<svg width="61" height="61" viewBox="0 0 61 61" fill="none" xmlns="http://www.w3.org/2000/svg">
<path d="M30.5 2C24.8632 2 19.3531 3.6715 14.6663 6.80312C9.97946 9.93473 6.32654 14.3858 4.16945 19.5935C2.01235 24.8012 1.44795 30.5316 2.54763 36.0601C3.64731 41.5885 6.36167 46.6667 10.3475 50.6525C14.3333 54.6383 19.4115 57.3527 24.9399 58.4524C30.4684 59.552 36.1988 58.9877 41.4065 56.8306C46.6142 54.6735 51.0653 51.0205 54.1969 46.3337C57.3285 41.6469 59 36.1368 59 30.5C59 22.9413 55.9973 15.6922 50.6525 10.3475C45.3077 5.00267 38.0587 2 30.5 2V2ZM26.4495 42.3071H18.578V34.4357H26.4495V42.3071ZM42.1923 34.4357H34.3626V26.5643H26.4495V18.6929H42.1923V26.5643V34.4357Z" stroke="#0B5ED7" stroke-width="3"/>
</svg>
