<svg width="63" height="81" viewBox="0 0 63 81" fill="none" xmlns="http://www.w3.org/2000/svg">
<path d="M10 0.226497L4.2265 6L10 11.7735L15.7735 6L10 0.226497ZM9 6L9 53L11 53L11 6L9 6Z" fill="#39433D"/>
<path d="M7.824 70.52H2.96L2.064 73H0.528L4.56 61.912H6.24L10.256 73H8.72L7.824 70.52ZM7.408 69.336L5.392 63.704L3.376 69.336H7.408ZM16.2853 64.072C17.3519 64.072 18.2159 64.3973 18.8773 65.048C19.5386 65.688 19.8693 66.616 19.8693 67.832V73H18.4293V68.04C18.4293 67.1653 18.2106 66.4987 17.7733 66.04C17.3359 65.5707 16.7386 65.336 15.9813 65.336C15.2133 65.336 14.5999 65.576 14.1413 66.056C13.6933 66.536 13.4693 67.2347 13.4693 68.152V73H12.0133L12.0133 64.232H13.4693V65.48C13.7573 65.032 14.1466 64.6853 14.6373 64.44C15.1386 64.1947 15.6879 64.072 16.2853 64.072ZM21.7036 68.584C21.7036 67.688 21.885 66.904 22.2476 66.232C22.6103 65.5493 23.1063 65.0213 23.7356 64.648C24.3756 64.2747 25.085 64.088 25.8636 64.088C26.6316 64.088 27.2983 64.2533 27.8636 64.584C28.429 64.9147 28.8503 65.3307 29.1276 65.832V64.232H30.5996V73H29.1276V71.368C28.8396 71.88 28.4076 72.3067 27.8316 72.648C27.2663 72.9787 26.605 73.144 25.8476 73.144C25.069 73.144 24.365 72.952 23.7356 72.568C23.1063 72.184 22.6103 71.6453 22.2476 70.952C21.885 70.2587 21.7036 69.4693 21.7036 68.584ZM29.1276 68.6C29.1276 67.9387 28.9943 67.3627 28.7276 66.872C28.461 66.3813 28.0983 66.008 27.6396 65.752C27.1916 65.4853 26.6956 65.352 26.1516 65.352C25.6076 65.352 25.1116 65.48 24.6636 65.736C24.2156 65.992 23.8583 66.3653 23.5916 66.856C23.325 67.3467 23.1916 67.9227 23.1916 68.584C23.1916 69.256 23.325 69.8427 23.5916 70.344C23.8583 70.8347 24.2156 71.2133 24.6636 71.48C25.1116 71.736 25.6076 71.864 26.1516 71.864C26.6956 71.864 27.1916 71.736 27.6396 71.48C28.0983 71.2133 28.461 70.8347 28.7276 70.344C28.9943 69.8427 29.1276 69.2613 29.1276 68.6ZM34.5161 61.16V73H33.0601V61.16H34.5161ZM44.5496 64.232L39.2696 77.128H37.7656L39.4936 72.904L35.9576 64.232H37.5736L40.3256 71.336L43.0456 64.232H44.5496ZM41.8296 61.752L38.4216 63.576V62.488L41.8296 60.488V61.752ZM47.1013 71.8H51.4053V73H45.4373V71.8L49.6933 65.416H45.4693V64.232H51.3733V65.416L47.1013 71.8ZM52.7505 68.584C52.7505 67.688 52.9318 66.904 53.2945 66.232C53.6572 65.5493 54.1532 65.0213 54.7825 64.648C55.4225 64.2747 56.1318 64.088 56.9105 64.088C57.6785 64.088 58.3452 64.2533 58.9105 64.584C59.4758 64.9147 59.8972 65.3307 60.1745 65.832V64.232H61.6465V73H60.1745V71.368C59.8865 71.88 59.4545 72.3067 58.8785 72.648C58.3132 72.9787 57.6518 73.144 56.8945 73.144C56.1158 73.144 55.4118 72.952 54.7825 72.568C54.1532 72.184 53.6572 71.6453 53.2945 70.952C52.9318 70.2587 52.7505 69.4693 52.7505 68.584ZM60.1745 68.6C60.1745 67.9387 60.0412 67.3627 59.7745 66.872C59.5078 66.3813 59.1452 66.008 58.6865 65.752C58.2385 65.4853 57.7425 65.352 57.1985 65.352C56.6545 65.352 56.1585 65.48 55.7105 65.736C55.2625 65.992 54.9052 66.3653 54.6385 66.856C54.3718 67.3467 54.2385 67.9227 54.2385 68.584C54.2385 69.256 54.3718 69.8427 54.6385 70.344C54.9052 70.8347 55.2625 71.2133 55.7105 71.48C56.1585 71.736 56.6545 71.864 57.1985 71.864C57.7425 71.864 58.2385 71.736 58.6865 71.48C59.1452 71.2133 59.5078 70.8347 59.7745 70.344C60.0412 69.8427 60.1745 69.2613 60.1745 68.6Z" fill="#222E27"/>
</svg>
