<svg width="179" height="122" viewBox="0 0 179 122" fill="none" xmlns="http://www.w3.org/2000/svg">
<path d="M11.6252 7.96V10.7H7.90516V22H4.48516V10.7H0.765156V7.96H11.6252ZM23.8616 16.24C23.8616 16.56 23.8416 16.8933 23.8016 17.24H16.0616C16.1149 17.9333 16.3349 18.4667 16.7216 18.84C17.1216 19.2 17.6082 19.38 18.1816 19.38C19.0349 19.38 19.6282 19.02 19.9616 18.3H23.6016C23.4149 19.0333 23.0749 19.6933 22.5816 20.28C22.1016 20.8667 21.4949 21.3267 20.7616 21.66C20.0282 21.9933 19.2082 22.16 18.3016 22.16C17.2082 22.16 16.2349 21.9267 15.3816 21.46C14.5282 20.9933 13.8616 20.3267 13.3816 19.46C12.9016 18.5933 12.6616 17.58 12.6616 16.42C12.6616 15.26 12.8949 14.2467 13.3616 13.38C13.8416 12.5133 14.5082 11.8467 15.3616 11.38C16.2149 10.9133 17.1949 10.68 18.3016 10.68C19.3816 10.68 20.3416 10.9067 21.1816 11.36C22.0216 11.8133 22.6749 12.46 23.1416 13.3C23.6216 14.14 23.8616 15.12 23.8616 16.24ZM20.3616 15.34C20.3616 14.7533 20.1616 14.2867 19.7616 13.94C19.3616 13.5933 18.8616 13.42 18.2616 13.42C17.6882 13.42 17.2016 13.5867 16.8016 13.92C16.4149 14.2533 16.1749 14.7267 16.0816 15.34H20.3616ZM29.0858 12.7C29.4858 12.0867 29.9858 11.6067 30.5858 11.26C31.1858 10.9 31.8524 10.72 32.5858 10.72V14.34H31.6458C30.7924 14.34 30.1524 14.5267 29.7258 14.9C29.2991 15.26 29.0858 15.9 29.0858 16.82V22H25.6658V10.84H29.0858V12.7ZM48.4605 10.72C49.8471 10.72 50.9471 11.14 51.7605 11.98C52.5871 12.82 53.0005 13.9867 53.0005 15.48V22H49.6005V15.94C49.6005 15.22 49.4071 14.6667 49.0205 14.28C48.6471 13.88 48.1271 13.68 47.4605 13.68C46.7938 13.68 46.2671 13.88 45.8805 14.28C45.5071 14.6667 45.3205 15.22 45.3205 15.94V22H41.9205V15.94C41.9205 15.22 41.7271 14.6667 41.3405 14.28C40.9671 13.88 40.4471 13.68 39.7805 13.68C39.1138 13.68 38.5871 13.88 38.2005 14.28C37.8271 14.6667 37.6405 15.22 37.6405 15.94V22H34.2205V10.84H37.6405V12.24C37.9871 11.7733 38.4405 11.4067 39.0005 11.14C39.5605 10.86 40.1938 10.72 40.9005 10.72C41.7405 10.72 42.4871 10.9 43.1405 11.26C43.8071 11.62 44.3271 12.1333 44.7005 12.8C45.0871 12.1867 45.6138 11.6867 46.2805 11.3C46.9471 10.9133 47.6738 10.72 48.4605 10.72ZM59.0723 10.84V22H55.6523V10.84H59.0723ZM59.6923 8.06L54.8723 10.08V7.72L59.6923 5.4V8.06ZM68.6181 10.72C69.9248 10.72 70.9648 11.1467 71.7381 12C72.5248 12.84 72.9181 14 72.9181 15.48V22H69.5181V15.94C69.5181 15.1933 69.3248 14.6133 68.9381 14.2C68.5515 13.7867 68.0315 13.58 67.3781 13.58C66.7248 13.58 66.2048 13.7867 65.8181 14.2C65.4315 14.6133 65.2381 15.1933 65.2381 15.94V22H61.8181V10.84H65.2381V12.32C65.5848 11.8267 66.0515 11.44 66.6381 11.16C67.2248 10.8667 67.8848 10.72 68.6181 10.72ZM84.073 22.16C83.0996 22.16 82.233 21.9933 81.473 21.66C80.713 21.3267 80.113 20.8733 79.673 20.3C79.233 19.7133 78.9863 19.06 78.933 18.34H82.313C82.353 18.7267 82.533 19.04 82.853 19.28C83.173 19.52 83.5663 19.64 84.033 19.64C84.4596 19.64 84.7863 19.56 85.013 19.4C85.253 19.2267 85.373 19.0067 85.373 18.74C85.373 18.42 85.2063 18.1867 84.873 18.04C84.5396 17.88 83.9996 17.7067 83.253 17.52C82.453 17.3333 81.7863 17.14 81.253 16.94C80.7196 16.7267 80.2596 16.4 79.873 15.96C79.4863 15.5067 79.293 14.9 79.293 14.14C79.293 13.5 79.4663 12.92 79.813 12.4C80.173 11.8667 80.693 11.4467 81.373 11.14C82.0663 10.8333 82.8863 10.68 83.833 10.68C85.233 10.68 86.333 11.0267 87.133 11.72C87.9463 12.4133 88.413 13.3333 88.533 14.48H85.373C85.3196 14.0933 85.1463 13.7867 84.853 13.56C84.573 13.3333 84.1996 13.22 83.733 13.22C83.333 13.22 83.0263 13.3 82.813 13.46C82.5996 13.6067 82.493 13.8133 82.493 14.08C82.493 14.4 82.6596 14.64 82.993 14.8C83.3396 14.96 83.873 15.12 84.593 15.28C85.4196 15.4933 86.093 15.7067 86.613 15.92C87.133 16.12 87.5863 16.4533 87.973 16.92C88.373 17.3733 88.5796 17.9867 88.593 18.76C88.593 19.4133 88.4063 20 88.033 20.52C87.673 21.0267 87.1463 21.4267 86.453 21.72C85.773 22.0133 84.9796 22.16 84.073 22.16ZM94.1053 12.42C94.4386 11.9 94.8986 11.48 95.4853 11.16C96.072 10.84 96.7586 10.68 97.5453 10.68C98.4653 10.68 99.2986 10.9133 100.045 11.38C100.792 11.8467 101.379 12.5133 101.805 13.38C102.245 14.2467 102.465 15.2533 102.465 16.4C102.465 17.5467 102.245 18.56 101.805 19.44C101.379 20.3067 100.792 20.98 100.045 21.46C99.2986 21.9267 98.4653 22.16 97.5453 22.16C96.772 22.16 96.0853 22 95.4853 21.68C94.8986 21.36 94.4386 20.9467 94.1053 20.44V27.32H90.6853V10.84H94.1053V12.42ZM98.9853 16.4C98.9853 15.5467 98.7453 14.88 98.2653 14.4C97.7986 13.9067 97.2186 13.66 96.5253 13.66C95.8453 13.66 95.2653 13.9067 94.7853 14.4C94.3186 14.8933 94.0853 15.5667 94.0853 16.42C94.0853 17.2733 94.3186 17.9467 94.7853 18.44C95.2653 18.9333 95.8453 19.18 96.5253 19.18C97.2053 19.18 97.7853 18.9333 98.2653 18.44C98.7453 17.9333 98.9853 17.2533 98.9853 16.4ZM115.28 10.84V22H111.86V20.48C111.513 20.9733 111.04 21.3733 110.44 21.68C109.853 21.9733 109.2 22.12 108.48 22.12C107.626 22.12 106.873 21.9333 106.22 21.56C105.566 21.1733 105.06 20.62 104.7 19.9C104.34 19.18 104.16 18.3333 104.16 17.36V10.84H107.56V16.9C107.56 17.6467 107.753 18.2267 108.14 18.64C108.526 19.0533 109.046 19.26 109.7 19.26C110.366 19.26 110.893 19.0533 111.28 18.64C111.666 18.2267 111.86 17.6467 111.86 16.9V10.84H115.28ZM122.276 22.16C121.303 22.16 120.436 21.9933 119.676 21.66C118.916 21.3267 118.316 20.8733 117.876 20.3C117.436 19.7133 117.189 19.06 117.136 18.34H120.516C120.556 18.7267 120.736 19.04 121.056 19.28C121.376 19.52 121.769 19.64 122.236 19.64C122.663 19.64 122.989 19.56 123.216 19.4C123.456 19.2267 123.576 19.0067 123.576 18.74C123.576 18.42 123.409 18.1867 123.076 18.04C122.743 17.88 122.203 17.7067 121.456 17.52C120.656 17.3333 119.989 17.14 119.456 16.94C118.923 16.7267 118.463 16.4 118.076 15.96C117.689 15.5067 117.496 14.9 117.496 14.14C117.496 13.5 117.669 12.92 118.016 12.4C118.376 11.8667 118.896 11.4467 119.576 11.14C120.269 10.8333 121.089 10.68 122.036 10.68C123.436 10.68 124.536 11.0267 125.336 11.72C126.149 12.4133 126.616 13.3333 126.736 14.48H123.576C123.523 14.0933 123.349 13.7867 123.056 13.56C122.776 13.3333 122.403 13.22 121.936 13.22C121.536 13.22 121.229 13.3 121.016 13.46C120.803 13.6067 120.696 13.8133 120.696 14.08C120.696 14.4 120.863 14.64 121.196 14.8C121.543 14.96 122.076 15.12 122.796 15.28C123.623 15.4933 124.296 15.7067 124.816 15.92C125.336 16.12 125.789 16.4533 126.176 16.92C126.576 17.3733 126.783 17.9867 126.796 18.76C126.796 19.4133 126.609 20 126.236 20.52C125.876 21.0267 125.349 21.4267 124.656 21.72C123.976 22.0133 123.183 22.16 122.276 22.16ZM125.296 8.42L122.196 10L119.096 8.42V6.06L122.196 7.8L125.296 6.06V8.42ZM135.108 19.1V22H133.368C132.128 22 131.162 21.7 130.468 21.1C129.775 20.4867 129.428 19.4933 129.428 18.12V13.68H128.068V10.84H129.428V8.12H132.848V10.84H135.088V13.68H132.848V18.16C132.848 18.4933 132.928 18.7333 133.088 18.88C133.248 19.0267 133.515 19.1 133.888 19.1H135.108ZM147.533 16.24C147.533 16.56 147.513 16.8933 147.473 17.24H139.733C139.787 17.9333 140.007 18.4667 140.393 18.84C140.793 19.2 141.28 19.38 141.853 19.38C142.707 19.38 143.3 19.02 143.633 18.3H147.273C147.087 19.0333 146.747 19.6933 146.253 20.28C145.773 20.8667 145.167 21.3267 144.433 21.66C143.7 21.9933 142.88 22.16 141.973 22.16C140.88 22.16 139.907 21.9267 139.053 21.46C138.2 20.9933 137.533 20.3267 137.053 19.46C136.573 18.5933 136.333 17.58 136.333 16.42C136.333 15.26 136.567 14.2467 137.033 13.38C137.513 12.5133 138.18 11.8467 139.033 11.38C139.887 10.9133 140.867 10.68 141.973 10.68C143.053 10.68 144.013 10.9067 144.853 11.36C145.693 11.8133 146.347 12.46 146.813 13.3C147.293 14.14 147.533 15.12 147.533 16.24ZM144.033 15.34C144.033 14.7533 143.833 14.2867 143.433 13.94C143.033 13.5933 142.533 13.42 141.933 13.42C141.36 13.42 140.873 13.5867 140.473 13.92C140.087 14.2533 139.847 14.7267 139.753 15.34H144.033ZM145.033 8.42L141.933 10L138.833 8.42V6.06L141.933 7.8L145.033 6.06V8.42ZM156.138 10.72C157.444 10.72 158.484 11.1467 159.258 12C160.044 12.84 160.438 14 160.438 15.48V22H157.038V15.94C157.038 15.1933 156.844 14.6133 156.458 14.2C156.071 13.7867 155.551 13.58 154.898 13.58C154.244 13.58 153.724 13.7867 153.338 14.2C152.951 14.6133 152.758 15.1933 152.758 15.94V22H149.338V10.84H152.758V12.32C153.104 11.8267 153.571 11.44 154.158 11.16C154.744 10.8667 155.404 10.72 156.138 10.72ZM166.494 10.84V22H163.074V10.84H166.494ZM167.114 8.06L162.294 10.08V7.72L167.114 5.4V8.06Z" fill="#222E27"/>
<line x1="178.5" y1="1.87306e-08" x2="178.5" y2="122" stroke="#222E27"/>
</svg>
