<svg width="165" height="81" viewBox="0 0 165 81" fill="none" xmlns="http://www.w3.org/2000/svg">
<path d="M10 0.226497L4.2265 6L10 11.7735L15.7735 6L10 0.226497ZM9 6L9 53L11 53L11 6L9 6Z" fill="#39433D"/>
<path d="M15.248 61.848L12.016 73H10.384L7.792 64.024L5.104 73L3.488 73.016L0.368 61.848H1.92L4.352 71.304L7.04 61.848H8.672L11.232 71.272L13.68 61.848H15.248ZM17.5934 62.808C17.316 62.808 17.0814 62.712 16.8894 62.52C16.6974 62.328 16.6014 62.0933 16.6014 61.816C16.6014 61.5387 16.6974 61.304 16.8894 61.112C17.0814 60.92 17.316 60.824 17.5934 60.824C17.86 60.824 18.084 60.92 18.2654 61.112C18.4574 61.304 18.5534 61.5387 18.5534 61.816C18.5534 62.0933 18.4574 62.328 18.2654 62.52C18.084 62.712 17.86 62.808 17.5934 62.808ZM18.2974 64.232V73H16.8414V64.232H18.2974ZM22.2349 65.656C22.4909 65.1547 22.8535 64.7653 23.3229 64.488C23.8029 64.2107 24.3842 64.072 25.0669 64.072V65.576H24.6829C23.0509 65.576 22.2349 66.4613 22.2349 68.232V73H20.7789V64.232H22.2349V65.656ZM34.7476 68.28C34.7476 68.5573 34.7316 68.8507 34.6996 69.16H27.6916C27.745 70.024 28.0383 70.7013 28.5716 71.192C29.1156 71.672 29.7716 71.912 30.5396 71.912C31.169 71.912 31.6916 71.768 32.1076 71.48C32.5343 71.1813 32.833 70.7867 33.0036 70.296H34.5716C34.337 71.1387 33.8676 71.8267 33.1636 72.36C32.4596 72.8827 31.585 73.144 30.5396 73.144C29.7076 73.144 28.961 72.9573 28.2996 72.584C27.649 72.2107 27.137 71.6827 26.7636 71C26.3903 70.3067 26.2036 69.5067 26.2036 68.6C26.2036 67.6933 26.385 66.8987 26.7476 66.216C27.1103 65.5333 27.617 65.0107 28.2676 64.648C28.929 64.2747 29.6863 64.088 30.5396 64.088C31.3716 64.088 32.1076 64.2693 32.7476 64.632C33.3876 64.9947 33.8783 65.496 34.2196 66.136C34.5716 66.7653 34.7476 67.48 34.7476 68.28ZM33.2436 67.976C33.2436 67.4213 33.121 66.9467 32.8756 66.552C32.6303 66.1467 32.2943 65.8427 31.8676 65.64C31.4516 65.4267 30.9876 65.32 30.4756 65.32C29.7396 65.32 29.1103 65.5547 28.5876 66.024C28.0756 66.4933 27.7823 67.144 27.7076 67.976H33.2436ZM47.2391 61.848V63.032H42.3911V66.792H46.3271V67.976H42.3911V73H40.9351V61.848H47.2391ZM50.4536 65.656C50.7096 65.1547 51.0723 64.7653 51.5416 64.488C52.0216 64.2107 52.603 64.072 53.2856 64.072V65.576H52.9016C51.2696 65.576 50.4536 66.4613 50.4536 68.232V73H48.9976V64.232H50.4536V65.656ZM54.4224 68.584C54.4224 67.688 54.6037 66.904 54.9664 66.232C55.329 65.5493 55.825 65.0213 56.4544 64.648C57.0944 64.2747 57.8037 64.088 58.5824 64.088C59.3504 64.088 60.017 64.2533 60.5824 64.584C61.1477 64.9147 61.569 65.3307 61.8464 65.832V64.232H63.3184V73H61.8464V71.368C61.5584 71.88 61.1264 72.3067 60.5504 72.648C59.985 72.9787 59.3237 73.144 58.5664 73.144C57.7877 73.144 57.0837 72.952 56.4544 72.568C55.825 72.184 55.329 71.6453 54.9664 70.952C54.6037 70.2587 54.4224 69.4693 54.4224 68.584ZM61.8464 68.6C61.8464 67.9387 61.713 67.3627 61.4464 66.872C61.1797 66.3813 60.817 66.008 60.3584 65.752C59.9104 65.4853 59.4144 65.352 58.8704 65.352C58.3264 65.352 57.8304 65.48 57.3824 65.736C56.9344 65.992 56.577 66.3653 56.3104 66.856C56.0437 67.3467 55.9104 67.9227 55.9104 68.584C55.9104 69.256 56.0437 69.8427 56.3104 70.344C56.577 70.8347 56.9344 71.2133 57.3824 71.48C57.8304 71.736 58.3264 71.864 58.8704 71.864C59.4144 71.864 59.9104 71.736 60.3584 71.48C60.817 71.2133 61.1797 70.8347 61.4464 70.344C61.713 69.8427 61.8464 69.2613 61.8464 68.6ZM76.3229 64.072C77.0055 64.072 77.6135 64.216 78.1469 64.504C78.6802 64.7813 79.1015 65.2027 79.4109 65.768C79.7202 66.3333 79.8749 67.0213 79.8749 67.832V73H78.4349V68.04C78.4349 67.1653 78.2162 66.4987 77.7789 66.04C77.3522 65.5707 76.7709 65.336 76.0349 65.336C75.2775 65.336 74.6749 65.5813 74.2269 66.072C73.7789 66.552 73.5549 67.2507 73.5549 68.168V73H72.1149V68.04C72.1149 67.1653 71.8962 66.4987 71.4589 66.04C71.0322 65.5707 70.4509 65.336 69.7149 65.336C68.9575 65.336 68.3549 65.5813 67.9069 66.072C67.4589 66.552 67.2349 67.2507 67.2349 68.168V73H65.7789V64.232H67.2349V65.496C67.5229 65.0373 67.9069 64.6853 68.3869 64.44C68.8775 64.1947 69.4162 64.072 70.0029 64.072C70.7389 64.072 71.3895 64.2373 71.9549 64.568C72.5202 64.8987 72.9415 65.384 73.2189 66.024C73.4642 65.4053 73.8695 64.9253 74.4349 64.584C75.0002 64.2427 75.6295 64.072 76.3229 64.072ZM90.2633 68.28C90.2633 68.5573 90.2473 68.8507 90.2153 69.16H83.2073C83.2606 70.024 83.5539 70.7013 84.0873 71.192C84.6313 71.672 85.2873 71.912 86.0553 71.912C86.6846 71.912 87.2073 71.768 87.6233 71.48C88.0499 71.1813 88.3486 70.7867 88.5193 70.296H90.0873C89.8526 71.1387 89.3833 71.8267 88.6793 72.36C87.9753 72.8827 87.1006 73.144 86.0553 73.144C85.2233 73.144 84.4766 72.9573 83.8153 72.584C83.1646 72.2107 82.6526 71.6827 82.2793 71C81.9059 70.3067 81.7193 69.5067 81.7193 68.6C81.7193 67.6933 81.9006 66.8987 82.2633 66.216C82.6259 65.5333 83.1326 65.0107 83.7833 64.648C84.4446 64.2747 85.2019 64.088 86.0553 64.088C86.8873 64.088 87.6233 64.2693 88.2633 64.632C88.9033 64.9947 89.3939 65.496 89.7353 66.136C90.0873 66.7653 90.2633 67.48 90.2633 68.28ZM88.7593 67.976C88.7593 67.4213 88.6366 66.9467 88.3913 66.552C88.1459 66.1467 87.8099 65.8427 87.3833 65.64C86.9673 65.4267 86.5033 65.32 85.9913 65.32C85.2553 65.32 84.6259 65.5547 84.1033 66.024C83.5913 66.4933 83.2979 67.144 83.2233 67.976H88.7593ZM101.891 57.928L97.5068 75.72H96.0668L100.435 57.928H101.891ZM116.774 65.08C116.464 64.4293 116.016 63.928 115.43 63.576C114.843 63.2133 114.16 63.032 113.382 63.032C112.603 63.032 111.899 63.2133 111.27 63.576C110.651 63.928 110.16 64.44 109.798 65.112C109.446 65.7733 109.27 66.5413 109.27 67.416C109.27 68.2907 109.446 69.0587 109.798 69.72C110.16 70.3813 110.651 70.8933 111.27 71.256C111.899 71.608 112.603 71.784 113.382 71.784C114.47 71.784 115.366 71.4587 116.07 70.808C116.774 70.1573 117.184 69.2773 117.302 68.168H112.854V66.984H118.854V68.104C118.768 69.0213 118.48 69.864 117.99 70.632C117.499 71.3893 116.854 71.992 116.054 72.44C115.254 72.8773 114.363 73.096 113.382 73.096C112.347 73.096 111.403 72.856 110.55 72.376C109.696 71.8853 109.019 71.208 108.518 70.344C108.027 69.48 107.782 68.504 107.782 67.416C107.782 66.328 108.027 65.352 108.518 64.488C109.019 63.6133 109.696 62.936 110.55 62.456C111.403 61.9653 112.347 61.72 113.382 61.72C114.566 61.72 115.611 62.0133 116.518 62.6C117.435 63.1867 118.102 64.0133 118.518 65.08H116.774ZM122.235 65.656C122.491 65.1547 122.854 64.7653 123.323 64.488C123.803 64.2107 124.384 64.072 125.067 64.072V65.576H124.683C123.051 65.576 122.235 66.4613 122.235 68.232V73H120.779V64.232H122.235V65.656ZM126.204 68.584C126.204 67.688 126.385 66.904 126.748 66.232C127.11 65.5493 127.606 65.0213 128.236 64.648C128.876 64.2747 129.585 64.088 130.364 64.088C131.132 64.088 131.798 64.2533 132.364 64.584C132.929 64.9147 133.35 65.3307 133.628 65.832V64.232H135.1V73H133.628V71.368C133.34 71.88 132.908 72.3067 132.332 72.648C131.766 72.9787 131.105 73.144 130.348 73.144C129.569 73.144 128.865 72.952 128.236 72.568C127.606 72.184 127.11 71.6453 126.748 70.952C126.385 70.2587 126.204 69.4693 126.204 68.584ZM133.628 68.6C133.628 67.9387 133.494 67.3627 133.228 66.872C132.961 66.3813 132.598 66.008 132.14 65.752C131.692 65.4853 131.196 65.352 130.652 65.352C130.108 65.352 129.612 65.48 129.164 65.736C128.716 65.992 128.358 66.3653 128.092 66.856C127.825 67.3467 127.692 67.9227 127.692 68.584C127.692 69.256 127.825 69.8427 128.092 70.344C128.358 70.8347 128.716 71.2133 129.164 71.48C129.612 71.736 130.108 71.864 130.652 71.864C131.196 71.864 131.692 71.736 132.14 71.48C132.598 71.2133 132.961 70.8347 133.228 70.344C133.494 69.8427 133.628 69.2613 133.628 68.6ZM141.128 65.432H139.288V73H137.832V65.432H136.696V64.232H137.832V63.608C137.832 62.6267 138.083 61.912 138.584 61.464C139.096 61.0053 139.912 60.776 141.032 60.776V61.992C140.392 61.992 139.939 62.12 139.672 62.376C139.416 62.6213 139.288 63.032 139.288 63.608V64.232H141.128V65.432ZM143.578 62.808C143.3 62.808 143.066 62.712 142.874 62.52C142.682 62.328 142.586 62.0933 142.586 61.816C142.586 61.5387 142.682 61.304 142.874 61.112C143.066 60.92 143.3 60.824 143.578 60.824C143.844 60.824 144.068 60.92 144.25 61.112C144.442 61.304 144.538 61.5387 144.538 61.816C144.538 62.0933 144.442 62.328 144.25 62.52C144.068 62.712 143.844 62.808 143.578 62.808ZM144.282 64.232V73H142.826V64.232H144.282ZM151.659 73L148.219 69.128V73H146.763V61.16H148.219V68.12L151.595 64.232H153.627L149.499 68.6L153.643 73H151.659ZM154.454 68.584C154.454 67.688 154.635 66.904 154.998 66.232C155.36 65.5493 155.856 65.0213 156.486 64.648C157.126 64.2747 157.835 64.088 158.614 64.088C159.382 64.088 160.048 64.2533 160.614 64.584C161.179 64.9147 161.6 65.3307 161.878 65.832V64.232H163.35V73H161.878V71.368C161.59 71.88 161.158 72.3067 160.582 72.648C160.016 72.9787 159.355 73.144 158.598 73.144C157.819 73.144 157.115 72.952 156.486 72.568C155.856 72.184 155.36 71.6453 154.998 70.952C154.635 70.2587 154.454 69.4693 154.454 68.584ZM161.878 68.6C161.878 67.9387 161.744 67.3627 161.478 66.872C161.211 66.3813 160.848 66.008 160.39 65.752C159.942 65.4853 159.446 65.352 158.902 65.352C158.358 65.352 157.862 65.48 157.414 65.736C156.966 65.992 156.608 66.3653 156.342 66.856C156.075 67.3467 155.942 67.9227 155.942 68.584C155.942 69.256 156.075 69.8427 156.342 70.344C156.608 70.8347 156.966 71.2133 157.414 71.48C157.862 71.736 158.358 71.864 158.902 71.864C159.446 71.864 159.942 71.736 160.39 71.48C160.848 71.2133 161.211 70.8347 161.478 70.344C161.744 69.8427 161.878 69.2613 161.878 68.6Z" fill="#222E27"/>
</svg>
