<svg width="152" height="122" viewBox="0 0 152 122" fill="none" xmlns="http://www.w3.org/2000/svg">
<line x1="0.5" y1="1.87306e-08" x2="0.499994" y2="122" stroke="#222E27"/>
<path d="M16.3669 22.14C15.3402 22.14 14.4202 21.9733 13.6069 21.64C12.7935 21.3067 12.1402 20.8133 11.6469 20.16C11.1669 19.5067 10.9135 18.72 10.8869 17.8H14.5269C14.5802 18.32 14.7602 18.72 15.0669 19C15.3735 19.2667 15.7735 19.4 16.2669 19.4C16.7735 19.4 17.1735 19.2867 17.4669 19.06C17.7602 18.82 17.9069 18.4933 17.9069 18.08C17.9069 17.7333 17.7869 17.4467 17.5469 17.22C17.3202 16.9933 17.0335 16.8067 16.6869 16.66C16.3535 16.5133 15.8735 16.3467 15.2469 16.16C14.3402 15.88 13.6002 15.6 13.0269 15.32C12.4535 15.04 11.9602 14.6267 11.5469 14.08C11.1335 13.5333 10.9269 12.82 10.9269 11.94C10.9269 10.6333 11.4002 9.61333 12.3469 8.88C13.2935 8.13333 14.5269 7.76 16.0469 7.76C17.5935 7.76 18.8402 8.13333 19.7869 8.88C20.7335 9.61333 21.2402 10.64 21.3069 11.96H17.6069C17.5802 11.5067 17.4135 11.1533 17.1069 10.9C16.8002 10.6333 16.4069 10.5 15.9269 10.5C15.5135 10.5 15.1802 10.6133 14.9269 10.84C14.6735 11.0533 14.5469 11.3667 14.5469 11.78C14.5469 12.2333 14.7602 12.5867 15.1869 12.84C15.6135 13.0933 16.2802 13.3667 17.1869 13.66C18.0935 13.9667 18.8269 14.26 19.3869 14.54C19.9602 14.82 20.4535 15.2267 20.8669 15.76C21.2802 16.2933 21.4869 16.98 21.4869 17.82C21.4869 18.62 21.2802 19.3467 20.8669 20C20.4669 20.6533 19.8802 21.1733 19.1069 21.56C18.3335 21.9467 17.4202 22.14 16.3669 22.14ZM29.8116 19.1V22H28.0716C26.8316 22 25.8649 21.7 25.1716 21.1C24.4782 20.4867 24.1316 19.4933 24.1316 18.12V13.68H22.7716V10.84H24.1316V8.12H27.5516V10.84H29.7916V13.68H27.5516V18.16C27.5516 18.4933 27.6316 18.7333 27.7916 18.88C27.9516 19.0267 28.2182 19.1 28.5916 19.1H29.8116ZM31.0366 16.4C31.0366 15.2533 31.2499 14.2467 31.6766 13.38C32.1166 12.5133 32.7099 11.8467 33.4566 11.38C34.2032 10.9133 35.0366 10.68 35.9566 10.68C36.7432 10.68 37.4299 10.84 38.0166 11.16C38.6166 11.48 39.0766 11.9 39.3966 12.42V10.84H42.8166V22H39.3966V20.42C39.0632 20.94 38.5966 21.36 37.9966 21.68C37.4099 22 36.7232 22.16 35.9366 22.16C35.0299 22.16 34.2032 21.9267 33.4566 21.46C32.7099 20.98 32.1166 20.3067 31.6766 19.44C31.2499 18.56 31.0366 17.5467 31.0366 16.4ZM39.3966 16.42C39.3966 15.5667 39.1566 14.8933 38.6766 14.4C38.2099 13.9067 37.6366 13.66 36.9566 13.66C36.2766 13.66 35.6966 13.9067 35.2166 14.4C34.7499 14.88 34.5166 15.5467 34.5166 16.4C34.5166 17.2533 34.7499 17.9333 35.2166 18.44C35.6966 18.9333 36.2766 19.18 36.9566 19.18C37.6366 19.18 38.2099 18.9333 38.6766 18.44C39.1566 17.9467 39.3966 17.2733 39.3966 16.42ZM48.7108 12.7C49.1108 12.0867 49.6108 11.6067 50.2108 11.26C50.8108 10.9 51.4774 10.72 52.2108 10.72V14.34H51.2708C50.4174 14.34 49.7774 14.5267 49.3508 14.9C48.9241 15.26 48.7108 15.9 48.7108 16.82V22H45.2908V10.84H48.7108V12.7ZM60.0655 19.1V22H58.3255C57.0855 22 56.1188 21.7 55.4255 21.1C54.7321 20.4867 54.3855 19.4933 54.3855 18.12V13.68H53.0255V10.84H54.3855V8.12H57.8055V10.84H60.0455V13.68H57.8055V18.16C57.8055 18.4933 57.8855 18.7333 58.0455 18.88C58.2055 19.0267 58.4721 19.1 58.8455 19.1H60.0655ZM69.6288 12.42C69.9621 11.9 70.4221 11.48 71.0088 11.16C71.5954 10.84 72.2821 10.68 73.0688 10.68C73.9888 10.68 74.8221 10.9133 75.5688 11.38C76.3154 11.8467 76.9021 12.5133 77.3288 13.38C77.7688 14.2467 77.9888 15.2533 77.9888 16.4C77.9888 17.5467 77.7688 18.56 77.3288 19.44C76.9021 20.3067 76.3154 20.98 75.5688 21.46C74.8221 21.9267 73.9888 22.16 73.0688 22.16C72.2954 22.16 71.6088 22 71.0088 21.68C70.4221 21.36 69.9621 20.9467 69.6288 20.44V27.32H66.2088V10.84H69.6288V12.42ZM74.5088 16.4C74.5088 15.5467 74.2688 14.88 73.7888 14.4C73.3221 13.9067 72.7421 13.66 72.0488 13.66C71.3688 13.66 70.7888 13.9067 70.3088 14.4C69.8421 14.8933 69.6088 15.5667 69.6088 16.42C69.6088 17.2733 69.8421 17.9467 70.3088 18.44C70.7888 18.9333 71.3688 19.18 72.0488 19.18C72.7288 19.18 73.3088 18.9333 73.7888 18.44C74.2688 17.9333 74.5088 17.2533 74.5088 16.4ZM83.203 12.7C83.603 12.0867 84.103 11.6067 84.703 11.26C85.303 10.9 85.9696 10.72 86.703 10.72V14.34H85.763C84.9096 14.34 84.2696 14.5267 83.843 14.9C83.4163 15.26 83.203 15.9 83.203 16.82V22H79.783V10.84H83.203V12.7ZM93.4177 22.16C92.3243 22.16 91.3377 21.9267 90.4577 21.46C89.591 20.9933 88.9043 20.3267 88.3977 19.46C87.9043 18.5933 87.6577 17.58 87.6577 16.42C87.6577 15.2733 87.911 14.2667 88.4177 13.4C88.9243 12.52 89.6177 11.8467 90.4977 11.38C91.3777 10.9133 92.3643 10.68 93.4577 10.68C94.551 10.68 95.5377 10.9133 96.4177 11.38C97.2977 11.8467 97.991 12.52 98.4977 13.4C99.0043 14.2667 99.2577 15.2733 99.2577 16.42C99.2577 17.5667 98.9977 18.58 98.4777 19.46C97.971 20.3267 97.271 20.9933 96.3777 21.46C95.4977 21.9267 94.511 22.16 93.4177 22.16ZM93.4177 19.2C94.071 19.2 94.6243 18.96 95.0777 18.48C95.5443 18 95.7777 17.3133 95.7777 16.42C95.7777 15.5267 95.551 14.84 95.0977 14.36C94.6577 13.88 94.111 13.64 93.4577 13.64C92.791 13.64 92.2377 13.88 91.7977 14.36C91.3577 14.8267 91.1377 15.5133 91.1377 16.42C91.1377 17.3133 91.351 18 91.7777 18.48C92.2177 18.96 92.7643 19.2 93.4177 19.2ZM102.772 9.68C102.172 9.68 101.679 9.50667 101.292 9.16C100.919 8.8 100.732 8.36 100.732 7.84C100.732 7.30667 100.919 6.86667 101.292 6.52C101.679 6.16 102.172 5.98 102.772 5.98C103.359 5.98 103.839 6.16 104.212 6.52C104.599 6.86667 104.792 7.30667 104.792 7.84C104.792 8.36 104.599 8.8 104.212 9.16C103.839 9.50667 103.359 9.68 102.772 9.68ZM104.492 23.44C104.492 24.8133 104.145 25.8 103.452 26.4C102.759 27.0133 101.792 27.32 100.552 27.32H99.212V24.42H100.032C100.405 24.42 100.672 24.3467 100.832 24.2C100.992 24.0533 101.072 23.8133 101.072 23.48V10.84H104.492V23.44ZM117.471 16.24C117.471 16.56 117.451 16.8933 117.411 17.24H109.671C109.724 17.9333 109.944 18.4667 110.331 18.84C110.731 19.2 111.218 19.38 111.791 19.38C112.644 19.38 113.238 19.02 113.571 18.3H117.211C117.024 19.0333 116.684 19.6933 116.191 20.28C115.711 20.8667 115.104 21.3267 114.371 21.66C113.638 21.9933 112.818 22.16 111.911 22.16C110.818 22.16 109.844 21.9267 108.991 21.46C108.138 20.9933 107.471 20.3267 106.991 19.46C106.511 18.5933 106.271 17.58 106.271 16.42C106.271 15.26 106.504 14.2467 106.971 13.38C107.451 12.5133 108.118 11.8467 108.971 11.38C109.824 10.9133 110.804 10.68 111.911 10.68C112.991 10.68 113.951 10.9067 114.791 11.36C115.631 11.8133 116.284 12.46 116.751 13.3C117.231 14.14 117.471 15.12 117.471 16.24ZM113.971 15.34C113.971 14.7533 113.771 14.2867 113.371 13.94C112.971 13.5933 112.471 13.42 111.871 13.42C111.298 13.42 110.811 13.5867 110.411 13.92C110.024 14.2533 109.784 14.7267 109.691 15.34H113.971ZM126.095 22L122.695 17.32V22H119.275V7.2H122.695V15.38L126.075 10.84H130.295L125.655 16.44L130.335 22H126.095ZM137.858 19.1V22H136.118C134.878 22 133.912 21.7 133.218 21.1C132.525 20.4867 132.178 19.4933 132.178 18.12V13.68H130.818V10.84H132.178V8.12H135.598V10.84H137.838V13.68H135.598V18.16C135.598 18.4933 135.678 18.7333 135.838 18.88C135.998 19.0267 136.265 19.1 136.638 19.1H137.858ZM150.783 10.84V22H147.363V20.48C147.017 20.9733 146.543 21.3733 145.943 21.68C145.357 21.9733 144.703 22.12 143.983 22.12C143.13 22.12 142.377 21.9333 141.723 21.56C141.07 21.1733 140.563 20.62 140.203 19.9C139.843 19.18 139.663 18.3333 139.663 17.36V10.84H143.063V16.9C143.063 17.6467 143.257 18.2267 143.643 18.64C144.03 19.0533 144.55 19.26 145.203 19.26C145.87 19.26 146.397 19.0533 146.783 18.64C147.17 18.2267 147.363 17.6467 147.363 16.9V10.84H150.783Z" fill="#222E27"/>
</svg>
